<?xml version="1.0" standalone="no"?>
<!DOCTYPE svg PUBLIC "-//W3C//DTD SVG 20010904//EN"
 "http://www.w3.org/TR/2001/REC-SVG-20010904/DTD/svg10.dtd">
<svg version="1.0" xmlns="http://www.w3.org/2000/svg"
 width="89.000000pt" height="98.000000pt" viewBox="0 0 89.000000 98.000000"
 preserveAspectRatio="xMidYMid meet">

<rect width="89" height="98" fill="#ffffff"/>
<g transform="translate(0.000000,98.000000) scale(0.100000,-0.100000)"
fill="#000000" stroke="none">
<path d="M462 828 c-7 -7 -12 -24 -12 -38 0 -33 17 -50 50 -50 33 0 50 17 50
50 0 14 -5 31 -12 38 -15 15 -61 15 -76 0z"/>
<path d="M330 625 l0 -35 75 0 75 0 0 -135 c0 -186 -17 -220 -130 -258 -39
-13 -45 -19 -45 -43 0 -22 5 -30 21 -32 32 -5 132 37 170 70 58 51 64 78 64
284 l0 184 -115 0 -115 0 0 -35z"/>
</g>
</svg>
